<svg version="1.1" id="Layer_1" xmlns="http://www.w3.org/2000/svg" xmlns:xlink="http://www.w3.org/1999/xlink" viewBox="0 0 393.568 393.568" xml:space="preserve" width="64px" height="64px" fill="#000000"><g id="SVGRepo_bgCarrier" stroke-width="0"></g><g id="SVGRepo_tracerCarrier" stroke-linecap="round" stroke-linejoin="round"></g><g id="SVGRepo_iconCarrier"> <circle style="fill:#6EB1E1;" cx="196.784" cy="196.784" r="196.784"></circle> <rect x="22.044" y="66.327" style="fill:#646B79;" width="305.261" height="30.125"></rect> <g> <rect x="29.091" y="66.327" style="fill:#FBD303;" width="6.529" height="30.125"></rect> <rect x="313.665" y="66.327" style="fill:#FBD303;" width="6.529" height="30.125"></rect> </g> <path style="fill:#FCFCFD;" d="M42.473,96.453v165.56c0,6.529,5.236,11.766,12.024,11.766h240.291 c6.529,0,12.024-5.236,12.024-11.766V96.453H42.473z"></path> <rect x="269.64" y="238.416" style="fill:#F0BA7A;" width="34.327" height="25.147"></rect> <circle style="fill:#4F5565;" cx="286.642" cy="199.693" r="38.788"></circle> <polygon style="fill:#DEDEDF;" points="264.404,254.707 286.642,256 308.945,254.707 303.968,327.24 269.64,327.24 "></polygon> <polygon style="fill:#F0582F;" points="281.665,271.451 275.135,312.824 286.642,327.24 298.473,312.824 291.879,271.451 "></polygon> <path style="fill:#4F5565;" d="M264.404,254.707c-1.552,0.517-50.554,22.562-50.554,22.562l-11.766,50.036h84.881L264.404,254.707z"></path> <polygon style="fill:#646B79;" points="264.404,254.707 254.448,259.168 239.515,282.182 253.608,286.642 241.067,301.317 269.64,327.24 286.642,327.24 "></polygon> <path style="fill:#4F5565;" d="M309.204,254.707c1.552,0.517,50.554,22.562,50.554,22.562l11.766,50.036h-84.881L309.204,254.707z"></path> <polygon style="fill:#646B79;" points="309.204,254.707 318.901,259.168 334.093,282.182 319.935,286.642 332.477,301.317 303.968,327.24 286.642,327.24 "></polygon> <polygon style="fill:#D54232;" points="289.293,256 284.057,256 275.135,264.921 281.665,271.451 291.879,271.451 298.473,264.921 "></polygon> <g> <polygon style="fill:#F1F3F7;" points="264.404,254.707 269.123,246.303 286.642,256 273.842,273.002 "></polygon> <polygon style="fill:#F1F3F7;" points="308.945,254.707 304.226,246.303 286.642,256 299.507,273.002 "></polygon> </g> <path style="fill:#F7CFA2;" d="M311.79,210.683v-13.64c-9.438-3.943-12.865-13.64-12.865-13.64 c-11.507,16.743-38.788,15.192-38.788,15.192v12.024h-3.426c1.552,20.17,14.158,35.62,29.867,35.62 c15.451,0,28.315-15.709,29.867-35.62L311.79,210.683L311.79,210.683z"></path> <polygon style="fill:#F0582F;" points="207.257,126.836 207.257,136.533 228.202,136.533 188.897,175.838 172.671,159.547 134.141,198.077 102.723,166.659 57.147,211.976 64.194,218.764 102.723,180.299 134.141,211.717 172.671,173.188 188.897,189.479 235.055,143.321 235.055,164.267 244.752,164.267 244.752,126.836 "></polygon> </g></svg>